# xmcd
#
# Track frame offsets:
#	150
#	14801
#	27667
#	41448
#	54912
#	67386
#	81028
#	94268
#	105461
#	120553
#	133714
#	146257
#	160157
#	172631
#
# Disc length: 2467 seconds
#
# Revision: 1
# Processed by: cddbd v1.5.2PL0 Copyright (c) Steve Scherf et al.
# Submitted via: EZCDAudioConverter 3.1.5.1
#
DISCID=b709a10e
DTITLE=Σπάνιες Ηχογραφήσεις - Τα Ρεμπέτικα  Νο3
DYEAR=1994
DGENRE=rebetiko
TTITLE0=Ιωάννης Τατασόπουλος - Ρεμπέτης
TTITLE1=Γιάννης Παπαϊωάννου - Τον Λόγο σου Δεν Κράτησε
TTITLE2=Θεόδωρος Καβουράκης - Τέτοια Κούκλα Και Τσαχπίνα
TTITLE3=Πόλυ Πάνου - Πικρή Ζωή
TTITLE4=Χαρίτος - Σαν Φορούσα Το Σαλβάρι
TTITLE5=Στέλιος  Λιθόπουλος - Αν Σε Χάσω Τι Θα Γίνω
TTITLE6=Αθανάσιος Ευγενικός, Μ. Ζανέτ - Θα Φύγω Για Την Ξενιτιά
TTITLE7=Θανάσης Λαγουρός, Ταρσή - Είμαι Μάγκας Πειραιώτης
TTITLE8=Απόστολος Νικολαίδης - Ο Καψούρης
TTITLE9=Ρένα Ντάλια - Πάψε Παράνομα Να Ζείς
TTITLE10=Χαρίτος - Ήσουνα Ξυπόλητη
TTITLE11=Τάσος Αποστόλου, Πόγγης - Φέρε μας Κάπελα Κρασί
TTITLE12=Ζωή Νάχη - Το Δικό σου το Μαράζι
TTITLE13=Χαρίτος - Απ' του Μεμέτη το Νερό
EXTD=
EXTT0=
EXTT1=
EXTT2=
EXTT3=
EXTT4=
EXTT5=
EXTT6=
EXTT7=
EXTT8=
EXTT9=
EXTT10=
EXTT11=
EXTT12=
EXTT13=
PLAYORDER=
